<svg width="69" height="19" xmlns="http://www.w3.org/2000/svg" xmlns:svg="http://www.w3.org/2000/svg"><metadata id="metadata8">image/svg+xml</metadata><g><title>Layer 1</title><g id="g10" transform="matrix(0.361998550318656,0,0,-0.3633084569199476,-0.182170858831153,25.86013634373824) "><g id="g12" transform="translate(-11.566800117492676,0) scale(0.10000000149011612) "><path fill="#214969" fill-rule="nonzero" d="m354.734,701.448298c-69.304,5.828 -119.699,-24.411 -117.855,-62.555c1.476,-30.719 30.965,-45.289 59.93,-46.352l-0.016,0.028c9.344,0.328 18.434,1.453 24.852,3.496c33.359,10.562 82.41,5.441 86.5,-34.238c2.714,-26.075 -20.899,-48.997 -57.887,-60.415c-60.113,-20.394 -159.774,2.086 -179.301,69.528c-21.586,74.539 75.012,125.004 84.731,129.668c9.718,4.707 11.074,12.601 -2.977,9.144c-53.547,-13.086 -135.914,-57.82 -136.551,-141.25c-0.492,-64.8 76.492,-147.953 203.641,-145.543c91.824,1.746 191.816,55.368 191.715,151.067c-0.094,68.511 -70.832,120.176 -156.782,127.422" id="path14"/><path fill="#537796" fill-rule="nonzero" d="m475.137,571.143298c0,54.578 -39.871,102.164 -99,127.512c-7.016,1.218 -14.141,2.175 -21.403,2.793c-69.304,5.828 -119.699,-24.411 -117.855,-62.555c1.476,-30.719 30.965,-45.289 59.93,-46.352l-0.016,0.028c9.344,0.328 18.434,1.453 24.852,3.496c33.359,10.562 82.41,5.441 86.5,-34.238c2.714,-26.075 -20.899,-48.997 -57.887,-60.415c-60.113,-20.394 -159.774,2.086 -179.301,69.528c-21.586,74.539 75.012,125.004 84.731,129.668c9.718,4.707 11.074,12.601 -2.977,9.144c-53.547,-13.086 -135.914,-57.82 -136.551,-141.25c-0.437,-58.894 63.137,-132.957 170.219,-144.136c104.934,3.093 188.758,67.593 188.758,146.777" id="path16"/><path fill="#214969" fill-rule="nonzero" d="m708.359,595.428298c-31.175,0 -44.906,-29.312 -44.906,-61.601c0,-31.915 13.731,-61.239 44.906,-61.239c31.172,0 44.903,29.324 44.903,61.239c0,32.289 -13.731,61.601 -44.903,61.601zm-95.746,107.621l52.7,0l0,-96.488l0.738,0c12.988,19.668 36.742,28.582 60.488,28.582c38.219,0 79.422,-30.801 79.422,-100.945c0,-70.5 -41.203,-101.317 -79.422,-101.317c-28.199,0 -51.578,8.547 -63.086,29.699l-0.75,0l0,-24.492l-50.09,0l0,264.961" id="path18"/><path fill="#214969" fill-rule="nonzero" d="m1005.88,438.088298l-50.09,0l0,26.703l-1.11,0c-13.37,-21.511 -36.375,-31.91 -58.633,-31.91c-56.035,0 -70.149,31.539 -70.149,79.055l0,118.008l52.707,0l0,-108.36c0,-31.554 9.266,-47.14 33.758,-47.14c28.587,0 40.827,15.965 40.827,54.933l0,100.567l52.69,0l0,-191.856" id="path20"/><path fill="#214969" fill-rule="nonzero" d="m1150.34,413.963298c-11.51,-30.812 -29.69,-43.429 -66.06,-43.429c-10.76,0 -21.52,0.761 -32.29,1.855l0,43.438c10.03,-0.762 20.42,-2.243 30.81,-1.864c18.19,1.864 24.12,20.774 18.19,36l-67.55,179.981l56.41,0l43.41,-131.371l0.75,0l41.94,131.371l54.55,0l-80.16,-215.981" id="path22"/><path fill="#214969" fill-rule="nonzero" d="m1339.22,615.471298c-51.57,0 -67.15,-38.223 -67.15,-81.644c0,-39.704 17.43,-81.649 67.15,-81.649c44.54,0 62.72,41.945 62.72,81.649c0,39.707 -18.18,81.644 -62.72,81.644zm-90.54,14.102l21.53,0l0,-36.364l0.73,0c10.76,25.977 37.49,41.934 68.28,41.934c58.28,0 86.1,-47.137 86.1,-101.316c0,-54.172 -27.82,-101.317 -86.1,-101.317c-28.56,0 -56.4,14.465 -66.42,41.934l-0.73,0l0,-107.25l-23.39,0l0,262.379" id="path24"/><path fill="#214969" fill-rule="nonzero" d="m1570.69,542.721298l-0.72,0c-2.98,-5.551 -13.37,-7.406 -19.67,-8.523c-39.71,-7.059 -89.06,-6.676 -89.06,-44.168c0,-23.379 20.78,-37.852 42.67,-37.852c35.63,0 67.17,22.645 66.78,60.133l0,30.41zm-124.68,28.219c2.23,44.91 33.78,64.203 77.57,64.203c33.76,0 70.5,-10.399 70.5,-61.609l0,-101.68c0,-8.914 4.46,-14.102 13.74,-14.102c2.6,0 5.56,0.735 7.42,1.489l0,-19.68c-5.19,-1.098 -8.9,-1.473 -15.22,-1.473c-23.76,0 -27.46,13.364 -27.46,33.387l-0.74,0c-16.32,-24.852 -33.03,-38.965 -69.76,-38.965c-35.26,0 -64.21,17.453 -64.21,56.043c0,53.816 52.33,55.668 102.79,61.609c19.3,2.223 30.05,4.825 30.05,25.977c0,31.547 -22.63,39.332 -50.09,39.332c-28.93,0 -50.46,-13.359 -51.21,-44.531l-23.38,0" id="path26"/><path fill="#214969" fill-rule="nonzero" d="m1753.67,573.534298c-1.12,28.945 -23.39,41.937 -50.1,41.937c-20.79,0 -45.29,-8.164 -45.29,-33.027c0,-20.774 23.76,-28.203 39.7,-32.282l31.19,-7.066c26.72,-4.066 54.56,-19.652 54.56,-53.066c0,-41.563 -41.21,-57.52 -76.83,-57.52c-44.53,0 -74.96,20.781 -78.66,67.539l23.36,0c1.86,-31.531 25.26,-47.871 56.41,-47.871c21.9,0 52.33,9.649 52.33,36.375c0,22.258 -20.78,29.695 -41.94,34.891l-30.06,6.672c-30.42,8.164 -53.43,18.558 -53.43,51.211c0,38.972 38.22,53.816 71.99,53.816c38.23,0 68.67,-20.047 70.14,-61.609l-23.37,0" id="path28"/><path fill="#214969" fill-rule="nonzero" d="m1930.31,573.534298c-1.13,28.945 -23.39,41.937 -50.1,41.937c-20.78,0 -45.28,-8.164 -45.28,-33.027c0,-20.774 23.75,-28.203 39.71,-32.282l31.18,-7.066c26.71,-4.066 54.55,-19.652 54.55,-53.066c0,-41.563 -41.2,-57.52 -76.83,-57.52c-44.54,0 -74.96,20.781 -78.68,67.539l23.39,0c1.85,-31.531 25.23,-47.871 56.41,-47.871c21.89,0 52.32,9.649 52.32,36.375c0,22.258 -20.77,29.695 -41.93,34.891l-30.06,6.672c-30.42,8.164 -53.44,18.558 -53.44,51.211c0,38.972 38.23,53.816 71.99,53.816c38.23,0 68.67,-20.047 70.15,-61.609l-23.38,0" id="path30"/><path fill="#214969" fill-rule="nonzero" d="m1980.52,623.592298l-7.43,0l0,4.582l20.34,0l0,-4.582l-7.44,0l0,-20.25l-5.47,0l0,20.25" id="path32"/><path fill="#214969" fill-rule="nonzero" d="m1996.12,628.174298l7.68,0l5.8,-17.074l0.07,0l5.51,17.074l7.7,0l0,-24.832l-5.13,0l0,17.598l-0.07,0l-6.08,-17.598l-4.21,0l-6.1,17.426l-0.06,0l0,-17.426l-5.11,0l0,24.832" id="path34"/></g></g></g></svg>