<svg width="69" height="19" xmlns="http://www.w3.org/2000/svg" xmlns:svg="http://www.w3.org/2000/svg"><defs><style>.cls-1{fill:#fff;}.cls-2{fill:#004875;}.cls-3{fill:#b2cadb;}</style></defs><g><title>Layer 1</title><g stroke="null" id="Layer_1"><rect stroke="null" id="svg_1" height="19.345144" width="69.326921" y="0" x="0" class="cls-1"/></g><g id="Layer_2"><path id="svg_2" d="m6.360324,6.806397a4.58,4.58 0 0 0 -2.4,-0.72a2.65,2.65 0 0 0 -2.78,2.66a2.6,2.6 0 0 0 2.82,2.64a4.56,4.56 0 0 0 2.43,-0.77l0,1.09a5.1,5.1 0 0 1 -2.52,0.61a3.56,3.56 0 0 1 -3.8,-3.48a3.63,3.63 0 0 1 3.82,-3.67a6,6 0 0 1 2.39,0.57l0.04,1.07z" class="cls-2"/><path id="svg_3" d="m12.190324,5.166397a3.58,3.58 0 1 1 0,7.14a3.57,3.57 0 1 1 0,-7.14zm0,6.22a2.65,2.65 0 1 0 0,-5.31a2.65,2.65 0 1 0 0,5.31z" class="cls-2"/><path id="svg_4" d="m24.630324,12.216397l-1,0l0,-5.42l0,0l-2.14,2.69l-0.18,0l-2.14,-2.69l0,0l0,5.42l-1.06,0l0,-7l1,0l2.31,2.86l2.32,-2.86l0.93,0l-0.04,7z" class="cls-2"/><path id="svg_5" d="m34.640324,12.216397l-1,0l0,-5.42l0,0l-2.14,2.69l-0.16,0l-2.14,-2.69l0,0l0,5.42l-1.09,0l0,-7l1,0l2.31,2.86l2.32,-2.86l0.93,0l-0.03,7z" class="cls-2"/><path id="svg_6" d="m41.910324,6.156397l-2.72,0l0,1.93l2.72,0l0,0.9l-2.72,0l0,3.23l-1,0l0,-7l3.72,0l0,0.94z" class="cls-2"/><path id="svg_7" d="m46.020324,12.216397l-1,0l0,-7l1,0l0,7z" class="cls-2"/><path id="svg_8" d="m49.610324,5.256397l2.7,0a3.44,3.44 0 0 1 3.7,3.48a3.52,3.52 0 0 1 -3.69,3.48l-2.71,0l0,-7l0,0.04zm1,6.02l1.59,0a2.56,2.56 0 0 0 2.79,-2.58a2.52,2.52 0 0 0 -2.88,-2.54l-1.5,0l0,5.16l0,-0.04z" class="cls-2"/><path id="svg_9" d="m62.420324,6.156397l-2.95,0l0,2.1l2.85,0l0,0.9l-2.85,0l0,2.16l3,0l0,0.9l-4,0l0,-7l3.95,0l0,0.9l0,0.04z" class="cls-2"/><path id="svg_10" d="m68.920324,6.786397a2.34,2.34 0 0 0 -1.63,-0.72c-0.64,0 -1.1,0.34 -1.1,0.83c0,1.34 3,1.32 3,3.53a1.86,1.86 0 0 1 -1.95,1.89a3.07,3.07 0 0 1 -1.94,-0.7l0,-1.22a2.35,2.35 0 0 0 1.84,1c0.78,0 1.13,-0.49 1.13,-0.88c0,-1.44 -3,-1.6 -3,-3.51a1.87,1.87 0 0 1 2.11,-1.86a2.78,2.78 0 0 1 1.55,0.49l-0.01,1.15z" class="cls-2"/><rect id="svg_11" height="1.46" width="35.42" y="0.026397" x="16.940324" class="cls-3"/><rect id="svg_12" height="1.46" width="35.42" y="15.966397" x="16.940324" class="cls-3"/></g></g></svg>